<svg xmlns="http://www.w3.org/2000/svg" width="151" height="53" viewBox="0 0 151 53">
    <g fill="#FFFFFF" fill-rule="evenodd">
        <g fill-rule="nonzero">
            <path d="M114.977 15.008a.975.975 0 1 0-.001 1.95.975.975 0 0 0 0-1.95zm0 1.756a.78.78 0 1 1 0-1.56.78.78 0 0 1 0 1.56z"/>
            <path d="M115.538 15.74c0-.225-.155-.324-.466-.324h-.502v1.134h.2v-.491h.228l.35.491h.222l-.374-.499c.193-.02.342-.109.342-.312zm-.769.172v-.35h.273c.138 0 .286.026.286.166 0 .174-.152.184-.322.184h-.237z"/>
        </g>
        <path d="M52.845 15.01L35.056 37.989h14.169l3.623-22.98zM64.09 15.01h-9.366l-3.622 22.979h9.262zM78.157 15.01l-3.622 22.977c6.17-.062 11.975-5.181 13-11.488 1.028-6.343-3.17-11.485-9.378-11.49zM66.903 15.01l-3.727 22.979h9.37l.002-.001h.11L76.28 15.01zM102.52 15.01c-6.21 0-12.082 5.144-13.113 11.49-1.025 6.327 3.148 11.458 9.33 11.488v.007h.171l3.625-22.986h-.012zM104.412 15.01l-3.624 22.976c6.168-.065 11.965-5.182 12.988-11.487 1.03-6.34-3.163-11.48-9.364-11.488z"/>
    </g>
</svg>
